<?xml version="1.0" encoding="UTF-8"?>
<svg width="400" height="100" version="1.1" viewBox="0 0 105.83 26.458" xmlns="http://www.w3.org/2000/svg" xmlns:cc="http://creativecommons.org/ns#" xmlns:dc="http://purl.org/dc/elements/1.1/" xmlns:rdf="http://www.w3.org/1999/02/22-rdf-syntax-ns#" xmlns:xlink="http://www.w3.org/1999/xlink">
 <title>flavou.rs logo</title>
 <defs>
  <linearGradient id="b">
   <stop stop-color="#0ca58f" offset="0"/>
   <stop stop-color="#8f34e6" offset="1"/>
  </linearGradient>
  <filter id="a" x="-3.0545e-7" y="-1.8499e-6" width="1" height="1" color-interpolation-filters="sRGB">
   <feGaussianBlur stdDeviation="1.3314389e-05"/>
  </filter>
  <linearGradient id="d" x1="51.487" x2="102.97" y1="13.597" y2="13.597" gradientTransform="matrix(1.0118 0 0 1.0118 0 -.44793)" gradientUnits="userSpaceOnUse" xlink:href="#b" spreadMethod="reflect"/>
  <linearGradient id="f" x1="52.917" x2="0" y1="20.834" y2="20.834" gradientTransform="matrix(.98919 0 0 1.083 0 -1.3967)" gradientUnits="userSpaceOnUse" xlink:href="#b" spreadMethod="reflect"/>
  <linearGradient id="c" x1="52.307" x2="104.61" y1="13.287" y2="13.287" gradientUnits="userSpaceOnUse" xlink:href="#b" spreadMethod="reflect"/>
  <linearGradient id="e" x1="52.307" x2="104.61" y1="13.287" y2="13.287" gradientTransform="matrix(3.79 0 0 3.8243 .97041 -.60465)" gradientUnits="userSpaceOnUse" xlink:href="#b" spreadMethod="reflect"/>
 </defs>
 <metadata>
  <rdf:RDF>
   <cc:Work rdf:about="">
    <dc:format>image/svg+xml</dc:format>
    <dc:type rdf:resource="http://purl.org/dc/dcmitype/StillImage"/>
    <dc:title>flavou.rs logo</dc:title>
    <dc:date>22/06/2020</dc:date>
    <dc:creator>
     <cc:Agent>
      <dc:title>Misterio77</dc:title>
     </cc:Agent>
    </dc:creator>
    <dc:rights>
     <cc:Agent>
      <dc:title/>
     </cc:Agent>
    </dc:rights>
    <cc:license rdf:resource="http://creativecommons.org/licenses/by/4.0/"/>
   </cc:Work>
   <cc:License rdf:about="http://creativecommons.org/licenses/by/4.0/">
    <cc:permits rdf:resource="http://creativecommons.org/ns#Reproduction"/>
    <cc:permits rdf:resource="http://creativecommons.org/ns#Distribution"/>
    <cc:requires rdf:resource="http://creativecommons.org/ns#Notice"/>
    <cc:requires rdf:resource="http://creativecommons.org/ns#Attribution"/>
    <cc:permits rdf:resource="http://creativecommons.org/ns#DerivativeWorks"/>
   </cc:License>
  </rdf:RDF>
 </metadata>
 <g>
  <path transform="matrix(1.0361 0 0 .99846 -.31107 -.034471)" d="m19.074 13.494c0 0.94966 0.56083 1.4245 1.6825 1.4245 0.5683 0 0.85908-0.04397 1.4797-0.29074l1.0461 1.8602c-0.92723 0.47857-2.0136 0.7972-3.2325 0.7972-1.2787 0-2.2545-0.36267-2.9275-1.088s-1.0095-1.7311-1.0095-3.0172v-10.757h-3.5556v-2.0975h6.5168z" fill="url(#c)" filter="url(#a)" style="font-variant-caps:normal;font-variant-east-asian:normal;font-variant-ligatures:normal;font-variant-numeric:normal"/>
  <path transform="scale(.26458)" d="m120.11 17.5c-2.4939 0-5.2001 0.27111-8.1191 0.81445-2.8907 0.54334-5.71 1.3299-8.459 2.3594l2.6777 7.7637c2.1822-0.74352 4.3647-1.3145 6.5469-1.7148 2.1822-0.42895 4.038-0.64258 5.5684-0.64258 3.1457 0 5.5252 0.62846 7.1406 1.8867 1.6154 1.2297 2.4238 3.1601 2.4238 5.791v2.4453h-6.291c-4.5911 0-8.5016 0.58534-11.732 1.7578-3.2308 1.1725-5.6834 2.8893-7.3555 5.1484-1.6721 2.2592-2.5078 4.9886-2.5078 8.1914 0 2.8025 0.6095 5.2771 1.8281 7.4219 1.2186 2.1448 2.9613 3.8165 5.2285 5.0176 2.2672 1.1725 4.9022 1.7598 7.9062 1.7598 2.919 0 5.6691-0.52981 8.248-1.5879 2.579-1.0581 4.6903-2.6024 6.334-4.6328 0.87854 1.8588 2.1395 3.2901 3.7832 4.291 1.6721 0.97229 3.7541 1.5864 6.248 1.8438l2.4238-7.5918c-1.1619-0.40036-1.9977-1.002-2.5078-1.8027-0.48179-0.82931-0.72266-2.0862-0.72266-3.7734v-19.219c0-5.0044-1.5584-8.8346-4.6758-11.494-3.1174-2.6881-7.7798-4.0332-13.986-4.0332zm-1.4707 24.553c5.0259-0.11841 9.2089 3.4145 9.3418 7.8906 0.02229 0.74752-0.63722 1.3669-1.4766 1.3867-0.39436 0.009449-0.75177-0.1166-1.0312-0.32617-0.26902-0.20092-0.62744-0.32735-1.0117-0.31836-0.83933 0.020031-1.4988 0.6392-1.4766 1.3867l0.04688 1.5938c0.07381 2.4858-2.1308 4.5553-4.9219 4.6211-4.4697 0.10526-8.1971-3.4379-8.3301-7.9141-0.13296-4.4761 3.8335-8.2019 8.8594-8.3203zm-1.4629 1.8379c-0.83933 0.020031-1.4988 0.63919-1.4766 1.3867 0.02229 0.74752 0.7173 1.3342 1.5566 1.3145 0.83933-0.020032 1.4988-0.6392 1.4766-1.3867-0.0223-0.74753-0.71731-1.3342-1.5566-1.3145zm-3.9648 2.7969c-0.83932 0.020031-1.4988 0.63919-1.4766 1.3867 0.0223 0.74753 0.71731 1.3342 1.5566 1.3145 0.83933-0.020032 1.4988-0.63919 1.4766-1.3867-0.02229-0.74753-0.71731-1.3342-1.5566-1.3145zm0.13282 4.502c-0.83933 0.020032-1.4988 0.6392-1.4766 1.3867 0.0223 0.74753 0.71927 1.3362 1.5586 1.3164 0.83933-0.020031 1.4988-0.63918 1.4766-1.3867-0.0223-0.74752-0.71926-1.3362-1.5586-1.3164zm4.127 2.6074c-0.83933 0.020031-1.5007 0.63919-1.4785 1.3867 0.0223 0.74753 0.71927 1.3342 1.5586 1.3145 0.83933-0.020032 1.4988-0.63919 1.4766-1.3867-0.0223-0.74752-0.71731-1.3342-1.5566-1.3145z" fill="url(#e)" filter="url(#a)" style="font-variant-caps:normal;font-variant-east-asian:normal;font-variant-ligatures:normal;font-variant-numeric:normal"/>
  <g fill="url(#c)">
   <path transform="matrix(.99798 0 0 .99121 .33475 .0010294)" d="m48.08 5.0706h3.0172l-4.0828 11.878h-3.4771l-4.1052-11.878h3.1855l2.7032 9.5116z" filter="url(#a)" style="font-variant-caps:normal;font-variant-east-asian:normal;font-variant-ligatures:normal;font-variant-numeric:normal"/>
   <path transform="matrix(1.0028 0 0 .99498 .11544 -.027228)" d="m58.736 4.7341c1.1665 0 2.1648 0.25798 2.9949 0.77394 0.83002 0.50848 1.4581 1.2338 1.8844 2.176 0.4337 0.93471 0.65056 2.0339 0.65056 3.2977 0 1.2862-0.21685 2.4041-0.65056 3.3537-0.4337 0.94219-1.0693 1.6713-1.9068 2.1872-0.83002 0.50848-1.8246 0.76272-2.9836 0.76272-1.1665 0-2.1648-0.2505-2.9948-0.75151-0.83002-0.501-1.4619-1.2226-1.8956-2.1648s-0.65056-2.0638-0.65056-3.365c0-1.2413 0.21685-2.333 0.65056-3.2752 0.44118-0.94966 1.0768-1.6862 1.9068-2.2097 0.8375-0.52344 1.8357-0.78516 2.9948-0.78516zm-1.8582 5.664c-1.3193 1.8614 0 4.1217 1.847 4.1217s3.1663-2.2603 1.847-4.1217c-2.9024-4.2547-0.79157-4.2547-3.694 0z" filter="url(#a)" style="font-variant-caps:normal;font-variant-east-asian:normal;font-variant-ligatures:normal;font-variant-numeric:normal"/>
   <path transform="matrix(1.0075 0 0 .9964 .23373 -.025261)" d="m70.222 13.304q0 0.94219 0.37014 1.346 0.37014 0.4038 1.1217 0.4038 0.68421 0 1.346-0.41501 0.67299-0.41501 1.088-1.0768v-8.4909h2.9612v11.878h-2.5798l-0.15703-1.4581q-0.62812 0.86367-1.6152 1.3348-0.98705 0.45988-2.0863 0.45988-1.6937 0-2.5574-0.9534-0.85246-0.9534-0.85246-2.6695v-8.5918h2.9612z" filter="url(#a)" style="font-variant-caps:normal;font-variant-east-asian:normal;font-variant-ligatures:normal;font-variant-numeric:normal"/>
   <path transform="matrix(1.0033 0 0 .99153 .5386 .072445)" d="m78.047 15.988q0-0.2985 0.14654-0.55359 0.15197-0.26051 0.40705-0.41248 0.26051-0.15196 0.56444-0.15196 0.30936 0 0.56444 0.15196 0.26051 0.15196 0.40705 0.41248 0.15197 0.25508 0.15197 0.55359 0 0.30393-0.15197 0.56444-0.14654 0.25508-0.40705 0.40705-0.25508 0.15196-0.56444 0.15196-0.30393 0-0.56444-0.15196-0.25508-0.15196-0.40705-0.40705-0.14654-0.26051-0.14654-0.56444z" filter="url(#a)" style="font-variant-caps:normal;font-variant-east-asian:normal;font-variant-ligatures:normal;font-variant-numeric:normal"/>
   <path transform="matrix(1.0124 0 0 .99731 -.067632 -.023)" d="m89.937 4.7454q0.53839 0 0.97584 0.089732 0.44866 0.078516 0.8861 0.23555l-0.52718 4.6324h-1.9741v-2.3218q-1.1329 0.089732-1.9853 1.0207-0.84124 0.93097-1.3348 2.5237v3.9706h2.3667v2.0526h-6.9991v-2.0526h1.6713v-7.7843h-1.6713v-2.0414h3.9258l0.54961 2.7256q0.66178-1.5367 1.6488-2.2882 0.99827-0.76272 2.4676-0.76272z" filter="url(#a)" style="font-variant-caps:normal;font-variant-east-asian:normal;font-variant-ligatures:normal;font-variant-numeric:normal"/>
   <path transform="matrix(1.0113 0 0 .99498 .031188 -.027228)" d="m99.213 15.098q1.0656 0 1.6825-0.35893 0.62813-0.37014 0.62813-1.0319 0-0.45988-0.21311-0.75151-0.21312-0.29163-0.81881-0.54961-0.59448-0.2692-1.8059-0.59448-1.2338-0.31406-2.0638-0.74029-0.83002-0.43744-1.2899-1.1217-0.45988-0.69542-0.45988-1.7049 0-1.0319 0.58326-1.8283 0.59448-0.79637 1.7049-1.2338 1.1217-0.44866 2.6471-0.44866 2.7144 0 4.6324 1.3908l-1.2114 1.8059q-1.6264-1.0319-3.3537-1.0319-1.9965 0-1.9965 1.1441 0 0.39258 0.23555 0.65056 0.24676 0.25798 0.84124 0.49353 0.60569 0.23555 1.8507 0.58326 1.2787 0.35893 2.0863 0.78516 0.81881 0.42623 1.2675 1.1329 0.45988 0.70664 0.45988 1.8059 0 1.2338-0.74029 2.0975-0.72908 0.85246-1.9517 1.2787-1.2226 0.41501-2.7032 0.41501-1.6152 0-2.8826-0.45988t-2.1872-1.2675l1.5367-1.7273q0.72907 0.58326 1.6264 0.93097 0.89732 0.3365 1.8956 0.3365z" filter="url(#a)" style="font-variant-caps:normal;font-variant-east-asian:normal;font-variant-ligatures:normal;font-variant-numeric:normal"/>
  </g>
  <g transform="scale(1.0157 .98449)" fill="url(#d)" stroke-width=".26245" aria-label="MANAGER FOR BASE16">
   <path d="m11.061 18.894h-0.55732l-1.4261 4.4668-1.4671-4.4668h-0.54913l-0.54913 5.606h0.36882l0.26227-2.7784c0.081959-0.86877 0.18851-1.926 0.21309-2.4506l1.5244 4.5569h0.37701l1.4753-4.5569c0.04098 0.52454 0.13933 1.5818 0.23768 2.4916l0.27866 2.7374h0.37701z" style="font-variant-caps:normal;font-variant-east-asian:normal;font-variant-ligatures:normal;font-variant-numeric:normal"/>
   <path d="m17.316 24.5h0.41799l-1.8933-5.606h-0.49176l-1.8933 5.606h0.3934l0.51634-1.5736h2.4424zm-2.8358-1.9178 1.1146-3.3685 1.0983 3.3685z" style="font-variant-caps:normal;font-variant-east-asian:normal;font-variant-ligatures:normal;font-variant-numeric:normal"/>
   <path d="m23.514 18.894h-0.36882v3.5324c0 0.73763 0.03278 1.3687 0.04918 1.6392l-2.7784-5.1716h-0.49996v5.606h0.36882v-3.3357c0-0.99171-0.02459-1.4753-0.04917-1.8359l2.7784 5.1716h0.49995z" style="font-variant-caps:normal;font-variant-east-asian:normal;font-variant-ligatures:normal;font-variant-numeric:normal"/>
   <path d="m29.557 24.5h0.41799l-1.8933-5.606h-0.49176l-1.8933 5.606h0.3934l0.51634-1.5736h2.4424zm-2.8358-1.9178 1.1146-3.3685 1.0983 3.3685z" style="font-variant-caps:normal;font-variant-east-asian:normal;font-variant-ligatures:normal;font-variant-numeric:normal"/>
   <path d="m34.009 18.813c-1.1638 0-2.3031 0.91794-2.3031 2.8604s0.92614 2.9178 2.3031 2.9178c0.56552 0 1.1146-0.16392 1.5982-0.45078v-2.6309h-1.5654l0.04918 0.33603h1.131v2.0982c-0.36062 0.1967-0.72944 0.30325-1.213 0.30325-1.1474 0-1.8933-0.81959-1.8933-2.5735 0-1.8277 0.96712-2.5243 1.8933-2.5243 0.49995 0 0.86057 0.13933 1.254 0.45078l0.23768-0.25407c-0.45078-0.36062-0.86057-0.53274-1.4917-0.53274z" style="font-variant-caps:normal;font-variant-east-asian:normal;font-variant-ligatures:normal;font-variant-numeric:normal"/>
   <path d="m40.962 18.894h-2.7784v5.606h2.8276v-0.33603h-2.4424v-2.4178h2.0244v-0.33603h-2.0244v-2.1801h2.344z" style="font-variant-caps:normal;font-variant-east-asian:normal;font-variant-ligatures:normal;font-variant-numeric:normal"/>
   <path d="m46.471 24.5h0.46717l-1.549-2.6309c0.78681-0.18851 1.2622-0.62289 1.2622-1.4753 0-0.96712-0.61469-1.4999-1.9424-1.4999h-1.3195v5.606h0.38521v-2.5653h1.213zm-2.6965-2.8932v-2.3768h0.90975c1.131 0 1.5572 0.4016 1.5572 1.1638 0 0.84418-0.54093 1.213-1.4753 1.213z" style="font-variant-caps:normal;font-variant-east-asian:normal;font-variant-ligatures:normal;font-variant-numeric:normal"/>
   <path d="m52.655 24.5h0.38521v-2.6555h1.9834v-0.32784h-1.9834v-2.2867h2.2949l0.04918-0.33603h-2.7292z" style="font-variant-caps:normal;font-variant-east-asian:normal;font-variant-ligatures:normal;font-variant-numeric:normal"/>
   <path d="m59.394 18.813c-1.3277 0-2.2539 1.0491-2.2539 2.9014 0 1.8605 0.91794 2.8768 2.2539 2.8768 1.3769 0 2.2621-1.0491 2.2621-2.885 0-1.8933-0.91794-2.8932-2.2621-2.8932zm0 0.33603c1.1228 0 1.8523 0.82779 1.8523 2.5571 0 1.7048-0.70485 2.5407-1.8523 2.5407-1.0901 0-1.8441-0.83598-1.8441-2.5325 0-1.7293 0.74583-2.5653 1.8441-2.5653z" style="font-variant-caps:normal;font-variant-east-asian:normal;font-variant-ligatures:normal;font-variant-numeric:normal"/>
   <path d="m67.33 24.5h0.46717l-1.549-2.6309c0.78681-0.18851 1.2622-0.62289 1.2622-1.4753 0-0.96712-0.61469-1.4999-1.9424-1.4999h-1.3195v5.606h0.38521v-2.5653h1.213zm-2.6965-2.8932v-2.3768h0.90975c1.131 0 1.5572 0.4016 1.5572 1.1638 0 0.84418-0.54093 1.213-1.4753 1.213z" style="font-variant-caps:normal;font-variant-east-asian:normal;font-variant-ligatures:normal;font-variant-numeric:normal"/>
   <path d="m75.686 21.525c0.5983-0.10655 1.0245-0.49995 1.0245-1.2376 0-0.93434-0.72944-1.3933-1.9752-1.3933h-1.2212v5.606h1.5162c1.213 0 1.9506-0.51634 1.9506-1.5408 0-0.96712-0.6065-1.3687-1.295-1.4343zm-0.90975-2.2949c0.97532 0 1.5326 0.31144 1.5326 1.0819 0 0.68026-0.47536 1.0737-1.1802 1.0737h-1.2294v-2.1555zm0.26227 4.934h-1.1392v-2.4506h1.2786c0.795 0 1.3933 0.37701 1.3933 1.2458 0 0.84418-0.59011 1.2048-1.5326 1.2048z" style="font-variant-caps:normal;font-variant-east-asian:normal;font-variant-ligatures:normal;font-variant-numeric:normal"/>
   <path d="m82.498 24.5h0.41799l-1.8933-5.606h-0.49176l-1.8933 5.606h0.3934l0.51634-1.5736h2.4424zm-2.8358-1.9178 1.1146-3.3685 1.0983 3.3685z" style="font-variant-caps:normal;font-variant-east-asian:normal;font-variant-ligatures:normal;font-variant-numeric:normal"/>
   <path d="m86.336 18.813c-0.95892 0-1.5982 0.57372-1.5982 1.3441 0 0.77861 0.44258 1.1638 1.5736 1.5081 1.0163 0.31144 1.3687 0.6065 1.3687 1.3277 0 0.78681-0.59011 1.254-1.4179 1.254-0.67207 0-1.1064-0.23768-1.5162-0.6065l-0.22949 0.25407c0.45078 0.42619 0.9999 0.69665 1.7539 0.69665 1.0819 0 1.8031-0.65567 1.8031-1.6064 0-0.95892-0.55732-1.3277-1.6064-1.6474-0.9999-0.30325-1.3359-0.57372-1.3359-1.1884 0-0.5983 0.48356-0.9999 1.213-0.9999 0.53274 0 0.90975 0.15572 1.3277 0.52454l0.22949-0.25407c-0.42619-0.37701-0.85238-0.6065-1.5654-0.6065z" style="font-variant-caps:normal;font-variant-east-asian:normal;font-variant-ligatures:normal;font-variant-numeric:normal"/>
   <path d="m93.354 18.894h-2.7784v5.606h2.8276v-0.33603h-2.4424v-2.4178h2.0244v-0.33603h-2.0244v-2.1801h2.344z" style="font-variant-caps:normal;font-variant-east-asian:normal;font-variant-ligatures:normal;font-variant-numeric:normal"/>
   <path d="m96.97 19.058h-0.31964l-1.6064 0.9999 0.18031 0.28686 1.3687-0.86057v5.0159h0.37701z" style="font-variant-caps:normal;font-variant-east-asian:normal;font-variant-ligatures:normal;font-variant-numeric:normal"/>
   <path d="m101.46 20.968c-0.63108 0-1.0982 0.34423-1.4343 0.84418 0.041-1.4589 0.57372-2.5243 1.5326-2.5243 0.31964 0 0.55733 0.09015 0.8114 0.26227l0.17212-0.27046c-0.27047-0.18851-0.56552-0.31145-0.97532-0.31145-1.1884 0-1.926 1.172-1.926 3.1145 0 1.3851 0.44258 2.508 1.6884 2.508 0.89335 0 1.5572-0.72124 1.5572-1.9178 0-1.1638-0.64747-1.7048-1.4261-1.7048zm-0.13113 3.2948c-0.91795 0-1.2704-0.795-1.3032-2.0244 0.31965-0.56552 0.79501-0.94253 1.3933-0.94253 0.6147 0 1.0819 0.41799 1.0819 1.3851 0 0.91794-0.40161 1.5818-1.172 1.5818z" style="font-variant-caps:normal;font-variant-east-asian:normal;font-variant-ligatures:normal;font-variant-numeric:normal"/>
  </g>
  <path d="m7.3298 0c-0.96532 0-1.8036 0.16779-2.5145 0.50281-0.7109 0.32758-1.2572 0.78882-1.6388 1.3844-0.37416 0.58815-0.56127 1.2622-0.56127 2.0216v1.9317h-2.6152v2.111h2.6152c-0.00149 5.0423 0.00219 10.677 0.00204 15.332 1.8221-5.2912 2.9048-2.9458 2.95-6.4311-4.04e-5 -3.0958-1.5e-5 -6.2484 0-8.9007h3.6033l0.32563-2.111h-3.9289v-1.865c0-0.61049 0.16881-1.0531 0.50556-1.3286 0.34422-0.28291 0.89052-0.42426 1.6388-0.42426 0.92791 0 1.777 0.15602 2.5477 0.46871l0.85316-1.9875c-1.115-0.46903-2.3759-0.70383-3.7827-0.70383z" fill="url(#f)"/>
 </g>
</svg>
